<svg width="16" height="16" fill="none" xmlns="http://www.w3.org/2000/svg"><path d="M12.5 9a3.513 3.513 0 012.477 1.023 3.513 3.513 0 01.75 3.844 3.513 3.513 0 01-4.594 1.86 3.537 3.537 0 01-1.86-1.86A3.446 3.446 0 019 12.5a3.513 3.513 0 012.133-3.227A3.446 3.446 0 0112.5 9zM10 12.5c0 .344.065.67.195.977.13.302.308.567.532.796.229.224.494.402.796.532a2.578 2.578 0 001.695.094c.235-.073.454-.178.657-.313l-3.46-3.461c-.136.203-.24.422-.313.656A2.578 2.578 0 0010 12.5zm4.586 1.375c.135-.203.237-.422.305-.656a2.407 2.407 0 00-.094-1.688 2.443 2.443 0 00-.54-.789 2.443 2.443 0 00-.788-.539 2.407 2.407 0 00-1.688-.094c-.234.068-.453.17-.656.305l3.46 3.461zM8.469 15c.224.37.5.703.828 1H1V0h8.71L14 4.29V8a4.073 4.073 0 00-1-.219V5H9V1H2v14h6.469zM10 4h2.29L10 1.71V4z" fill="#101010"/></svg>